<?xml version="1.0" encoding="UTF-8"?>
<svg width="30px" height="47px" viewBox="0 0 30 47" version="1.1" xmlns="http://www.w3.org/2000/svg" xmlns:xlink="http://www.w3.org/1999/xlink">
    <!-- Generator: Sketch 47.1 (45422) - http://www.bohemiancoding.com/sketch -->
    <title>skin_icon</title>
    <desc>Created with Sketch.</desc>
    <defs></defs>
    <g id="Page-1" stroke="none" stroke-width="1" fill="none" fill-rule="evenodd">
        <g id="6.1_homepage_Member" transform="translate(-30.000000, -331.000000)" fill="#5E658D">
            <g id="side-nav">
                <g id="skin_icon" transform="translate(30.000000, 331.000000)">
                    <path d="M9.5,7 C10.3271135,7 11,6.10283283 11,5.00003311 C11,3.89716717 10.3271135,3 9.5,3 C8.67288652,3 8,3.89716717 8,5.00003311 C8,6.10283283 8.67288652,7 9.5,7 Z M9.5,3.99326148 C9.91633829,3.99326148 10.2550416,4.44485836 10.2550416,5.00003311 C10.2550416,5.55514164 9.91633829,6.00673852 9.5,6.00673852 C9.08366171,6.00673852 8.74495844,5.55514164 8.74495844,5.00003311 C8.74495844,4.44492458 9.08366171,3.99326148 9.5,3.99326148 Z" id="Shape" fill-rule="nonzero"></path>
                    <path d="M6,11 C7.10279348,11 8,10.1027935 8,9 C8,7.89720652 7.1027386,7 6,7 C4.89720652,7 4,7.89720652 4,9 C4,10.1027935 4.89720652,11 6,11 Z M6,7.82311618 C6.64892157,7.82311618 7.17688382,8.35107843 7.17688382,9 C7.17688382,9.64892157 6.64892157,10.1768838 6,10.1768838 C5.35107843,10.1768838 4.82311618,9.64892157 4.82311618,9 C4.82311618,8.35107843 5.35107843,7.82311618 6,7.82311618 Z" id="Shape" fill-rule="nonzero"></path>
                    <path d="M9,16 C7.8972614,16 7,16.8972614 7,18 C7,19.1027386 7.8972614,20 9,20 C10.1027386,20 11,19.1027935 11,18 C10.9999451,16.8972065 10.1027386,16 9,16 Z M9,19.1769387 C8.35107843,19.1769387 7.82311618,18.6489765 7.82311618,18.0000549 C7.82311618,17.3511333 8.35107843,16.8231711 9,16.8231711 C9.64892157,16.8231711 10.1768838,17.3511333 10.1768838,18.0000549 C10.1768838,18.6489765 9.64892157,19.1769387 9,19.1769387 Z" id="Shape" fill-rule="nonzero"></path>
                    <path d="M5,12 C3.89720743,12 3,12.8972074 3,14 C3,15.1027926 3.89726176,16 5,16 C6.10273824,16 7,15.1027382 7,14 C7.00005433,12.8972074 6.10279257,12 5,12 Z M5,15.1852113 C4.34651744,15.1852113 3.81484299,14.6535369 3.81484299,14.0000543 C3.81484299,13.3465718 4.34651744,12.8148973 5,12.8148973 C5.65348256,12.8148973 6.18515701,13.3465718 6.18515701,14.0000543 C6.18521134,14.6534826 5.65353689,15.1852113 5,15.1852113 Z" id="Shape" fill-rule="nonzero"></path>
                    <path d="M29.5660201,5.75642056 C28.6977208,4.86484742 27.4931524,5.50740098 26.9772353,5.97168804 L21.9648998,10.4874317 C21.6606229,8.48901795 20.6786519,8.0374857 19.8551181,8.0374857 C18.8955884,8.0374857 17.9600821,8.686176 17.6924263,8.88790653 L15.8919019,10.2751123 C14.8944622,11.0437098 13.4735075,10.7542599 12.831321,9.66107655 C12.2736852,8.7113848 12.5058333,7.49239813 13.3712029,6.82565856 L15.1754187,5.43550477 C17.7759223,3.38673358 17.0116852,0.658768836 12.2743883,0.0789063646 C6.54351882,-0.629526983 0.977649044,3.5004439 0.112572338,9.7278588 C-0.781976977,16.1683151 3.76026167,21.9925096 9.98818114,22.5971597 C9.75943152,23.537887 9.81029081,24.5323409 10.173923,25.4257792 C10.2185128,25.535278 10.3032978,25.6223957 10.4098797,25.6680604 C13.0942307,26.819964 16.5261782,24.8207681 16.3185809,22.0296309 C16.4501823,22.0058661 16.2707685,22.1109729 18.9294555,20.2642331 C19.8463876,20.7082448 20.8807414,19.7129486 20.5288279,18.7447864 L26.7609075,11.4518035 C26.9209268,11.2645124 26.9028214,10.9794545 26.7204193,10.8151461 C26.5380173,10.6508377 26.2604006,10.6693682 26.1003813,10.8567195 L19.9727155,18.0276894 L17.6149655,15.6068027 C17.8089105,15.4320859 27.096532,7.06469089 27.554793,6.65184422 C27.5636406,6.64408304 28.4440103,5.88065962 28.9445758,6.39458214 C29.4449656,6.90838433 28.7014708,7.81271228 28.6957872,7.819571 L27.0411024,9.75595548 C26.8810831,9.94324661 26.8991886,10.2283045 27.0815906,10.3926129 C27.2639341,10.5569214 27.541668,10.5383908 27.7016287,10.3510395 L29.3567822,8.41411353 C29.8081291,7.88412717 30.4327961,6.6466701 29.5660201,5.75642056 Z M14.7633882,23.9293754 C13.7398742,24.9804438 12.229154,25.3800544 10.9192929,24.9030727 C10.2404854,22.931432 11.540913,20.2498538 13.4882731,20.2498538 C14.024405,20.2498538 14.5205175,20.4559763 14.8853801,20.8306188 C15.6837187,21.650416 15.6289922,23.0405698 14.7633882,23.9293754 Z M16.2967255,21.0037713 C15.6202617,20.3091155 15.3406528,20.022012 14.716689,19.3812634 L16.0318236,17.3850155 L18.2408629,19.653386 L16.2967255,21.0037713 Z M19.7209972,19.1434343 C19.7209972,19.2614163 19.6517981,19.3126762 19.5649623,19.4017794 C19.4778921,19.4913037 19.3259002,19.4913037 19.2387128,19.4016591 L16.2768036,16.360299 C16.1868038,16.2678868 16.1868038,16.1175967 16.2768036,16.0251845 L16.3650457,15.9345772 C16.452233,15.8448724 16.604225,15.8449927 16.6914123,15.9345772 C19.9012899,19.2304318 19.7209972,19.0021087 19.7209972,19.1434343 Z M16.9175252,15.0345811 C15.9862963,14.6773863 15.0047354,15.7344711 15.4362191,16.6785074 C13.690304,19.3288002 13.7427453,19.2104573 13.7171399,19.3563554 C12.1789979,19.2357262 10.9344101,20.2947363 10.2865986,21.7179804 C4.44551445,21.277759 0.149076184,15.8556418 0.982629504,9.85528656 C1.73362437,4.44839089 6.33791369,0.728378805 11.3780226,0.914526812 C13.6847376,0.996470439 15.6021563,1.85278737 15.7622928,2.82883104 C15.9045582,3.69549621 14.770185,4.61733194 14.6442087,4.71666302 L12.8437429,6.10392893 C11.4254835,7.19675129 11.2431986,9.28980333 12.443724,10.626411 C13.4520036,11.7488341 15.1679773,11.9612137 16.419362,10.9968419 L18.2160778,9.61252405 C18.6279326,9.30219715 19.3043377,8.93982823 19.8551767,8.93982823 C20.6220504,8.93982823 21.0605653,9.70421428 21.1600574,11.2125305 L16.9175252,15.0345811 Z" id="Shape" fill-rule="nonzero"></path>
                    <text id="SKIN" font-family="Lato-Regular, Lato" font-size="14" font-weight="normal" letter-spacing="-0.5555553">
                        <tspan x="0" y="46">SKIN</tspan>
                    </text>
                </g>
            </g>
        </g>
    </g>
</svg>