<?xml version="1.0" encoding="utf-8"?>
<!-- Generator: Adobe Illustrator 21.1.0, SVG Export Plug-In . SVG Version: 6.00 Build 0)  -->
<svg version="1.1" id="Layer_1" xmlns="http://www.w3.org/2000/svg" xmlns:xlink="http://www.w3.org/1999/xlink" x="0px" y="0px"
	 viewBox="0 0 500 500" style="enable-background:new 0 0 500 500;" xml:space="preserve">
<path id="Cancel" d="M478.4,422.5L305.9,250L478.4,77.5c15.4-15.4,15.4-40.5,0-55.9s-40.5-15.4-55.9,0L250,194.1L77.5,21.6
	C62.1,6.1,37,6.1,21.6,21.6s-15.4,40.5,0,55.9L194.1,250L21.6,422.5c-15.4,15.4-15.4,40.5,0,55.9c15.4,15.4,40.5,15.4,55.9,0
	L250,305.9l172.5,172.5c15.4,15.4,40.5,15.4,55.9,0C493.9,463,493.9,437.9,478.4,422.5z"/>
</svg>
