<?xml version="1.0" encoding="utf-8"?>
<!-- Generator: Adobe Illustrator 21.1.0, SVG Export Plug-In . SVG Version: 6.00 Build 0)  -->
<svg version="1.1" id="Layer_1" xmlns="http://www.w3.org/2000/svg" xmlns:xlink="http://www.w3.org/1999/xlink" x="0px" y="0px"
	 viewBox="0 0 500 500" style="enable-background:new 0 0 500 500;" xml:space="preserve">
<path id="Communicate" d="M453.8,319l-42.2-4.7c-11.8-12-11.8-26.9-11.3-32.2l2.9-1.9c7.9-8,22-24.2,29.6-43
	c1.8-4.5,3.4-9.1,4.2-13.9h30.6v-9.8c0-44.5-22.8-128.6-108.7-128.6c-85.9,0-108.7,84.1-108.7,128.6v9.8h30.6
	c0.9,4.7,2.4,9.3,4.2,13.9h0c7.6,18.8,21.7,35,29.6,43l2.9,1.9c0.5,5.2,0.5,20.2-11.3,32.2l-34.9,3.9v-12.9
	c0-24.9-18.7-45.8-43.4-48.6l-39.9-4.5v-32.5l7.9-7.9c10-10.1,15.6-23.4,15.6-37.6V97.1c0-18.8-15.3-34.1-34.1-34.1h-36.8H104
	c-18.8,0-34.1,15.3-34.1,34.1v77.2c0,14.2,5.5,27.6,15.6,37.6l7.9,7.9v32.5l-39.9,4.5C28.7,259.5,10,280.4,10,305.3v78.5h130.7H228
	V437h131h131v-76.4C490,339.7,474.5,321.9,453.8,319z M270.3,203.8c2.4-26.9,15.6-99.4,88.7-99.4c73.1,0,86.3,72.5,88.7,99.4h-9.3
	l0,0c-15.8-3.6-32.6-17.3-42.7-35l-6.6-11.4l-9,9.6c-20.9,22.2-48.1,37.4-80.6,45.7v-8.9H270.3z M306.8,237.2L306.8,237.2
	c-0.9-1.8-2.1-3.6-2.9-5.5c32-8.1,59.6-22.3,81.7-42.7c9,12,20.4,21.5,32.5,27.7c-0.6,6.8-3.4,13.8-6.9,20.5
	c-7.8,14.8-20.2,28.2-26.3,33.7l-0.6,0.5c-3.9,2.1-14.6,3.2-25.2,3.2c-10.7,0-21.4-1.1-25.2-3.2l-0.6-0.5
	C327,265.4,314.6,252,306.8,237.2z M397.8,328v27.1c0,10.9-8.9,19.8-19.8,19.8H359h-19.1c-10.9,0-19.8-8.9-19.8-19.8V328
	c12.2-12.3,16-26.6,16.9-37l22,0l22,0C381.8,301.5,385.6,315.7,397.8,328z M89.4,174.3V97.1c0-8.1,6.6-14.6,14.6-14.6h36.8h36.8
	c8.1,0,14.6,6.6,14.6,14.6v77.2c0,9-3.5,17.5-9.9,23.8l-12.7,12.7h-28.8h-28.8l-12.7-12.7C92.9,191.7,89.4,183.2,89.4,174.3z
	 M168.6,230.3v33.5l-27.9,40.1l-27.9-40.1v-33.5h27.9H168.6z M228,360.7v3.6h-87.2H29.5v-58.9c0-15,11.2-27.5,26.1-29.2l39-4.4
	l40.2,57.8c2.9,4.2,9,4.2,11.9,0l40.2-57.8l39,4.4c14.9,1.7,26.1,14.2,26.1,29.2v17.5C237.7,329.7,228,344.1,228,360.7z
	 M470.5,417.5H359H247.5v-56.9c0-11.2,8.4-20.8,19.4-22.3l33.7-3.8v20.5c0,21.7,17.6,39.3,39.3,39.3H359H378
	c21.7,0,39.3-17.6,39.3-39.3v-20.5l33.7,3.8c11.1,1.5,19.4,11.1,19.4,22.3V417.5z"/>
</svg>
