<?xml version="1.0" encoding="utf-8"?>
<!-- Generator: Adobe Illustrator 21.1.0, SVG Export Plug-In . SVG Version: 6.00 Build 0)  -->
<svg version="1.1" id="Layer_1" xmlns="http://www.w3.org/2000/svg" xmlns:xlink="http://www.w3.org/1999/xlink" x="0px" y="0px"
	 viewBox="0 0 500 500" style="enable-background:new 0 0 500 500;" xml:space="preserve">
<path id="Contact" d="M483.5,30.7c-6.5-6.7-16.3-8.7-25-5.1L28.7,205.2c-11.2,4.7-18.5,15.5-18.7,27.6C9.8,244.9,16.8,256,27.8,261
	l150.4,68.6l75.5,131.2c5.5,9.5,15.5,15.3,26.4,15.3c0.5,0,1.1,0,1.6,0c11.5-0.6,21.6-7.5,26.3-18L488,55.8v0
	C491.8,47.3,490.1,37.4,483.5,30.7z M47.3,233.4L405,84L186.5,297L47.3,233.4z M279.9,439.7l-69.1-120l217.9-212.4L279.9,439.7z"/>
</svg>
