<?xml version="1.0" encoding="utf-8"?>
<!-- Generator: Adobe Illustrator 21.1.0, SVG Export Plug-In . SVG Version: 6.00 Build 0)  -->
<svg version="1.1" id="Layer_1" xmlns="http://www.w3.org/2000/svg" xmlns:xlink="http://www.w3.org/1999/xlink" x="0px" y="0px"
	 viewBox="0 0 500 500" style="enable-background:new 0 0 500 500;" xml:space="preserve">
<g id="crop">
	<path d="M425,476.6L425,476.6c6.9,0,12.5-5.6,12.5-12.5v-39.7h-25.1V464C412.4,471,418.1,476.6,425,476.6z"/>
	<path d="M437.5,382.5v-257c0-4.6-5.3-7-8.8-4.1l-11.8,10c-2.8,2.4-4.4,5.9-4.4,9.6v241.5H437.5z"/>
	<path d="M481.9,48.4L481.9,48.4c-4.5-5.3-12.4-5.9-17.7-1.5L74.8,376.4v-260H49.7V416h415c6.9,0,12.5-5.6,12.5-12.5v0
		c0-6.9-5.6-12.5-12.5-12.5H96.5L480.4,66.1C485.7,61.6,486.4,53.7,481.9,48.4z"/>
	<path d="M62.2,23.4L62.2,23.4c-6.9,0-12.5,5.6-12.5,12.5v40.8h25.1V36C74.8,29,69.2,23.4,62.2,23.4z"/>
	<path d="M392,84H22.5C15.6,84,10,89.6,10,96.6v0c0,6.9,5.6,12.5,12.5,12.5h349.9c3,0,5.8-1.1,8.1-3l15-12.7
		C399.3,90.3,397,84,392,84z"/>
</g>
</svg>
