<?xml version="1.0" encoding="utf-8"?>
<!-- Generator: Adobe Illustrator 21.1.0, SVG Export Plug-In . SVG Version: 6.00 Build 0)  -->
<svg version="1.1" id="Layer_1" xmlns="http://www.w3.org/2000/svg" xmlns:xlink="http://www.w3.org/1999/xlink" x="0px" y="0px"
	 viewBox="0 0 500 500" style="enable-background:new 0 0 500 500;" xml:space="preserve">
<g id="Dash">
	<path d="M108.7,136.3h-71c-15.3,0-27.7-12.4-27.7-27.7v-71C10,22.4,22.4,10,37.7,10h71c15.3,0,27.7,12.4,27.7,27.7v71
		C136.3,123.9,123.9,136.3,108.7,136.3z"/>
	<path d="M285.5,136.3h-71c-15.3,0-27.7-12.4-27.7-27.7v-71c0-15.3,12.4-27.7,27.7-27.7h71c15.3,0,27.7,12.4,27.7,27.7v71
		C313.2,123.9,300.8,136.3,285.5,136.3z"/>
	<path d="M462.3,136.3h-71c-15.3,0-27.7-12.4-27.7-27.7v-71c0-15.3,12.4-27.7,27.7-27.7h71c15.3,0,27.7,12.4,27.7,27.7v71
		C490,123.9,477.6,136.3,462.3,136.3z"/>
	<path d="M108.7,313.2h-71c-15.3,0-27.7-12.4-27.7-27.7v-71c0-15.3,12.4-27.7,27.7-27.7h71c15.3,0,27.7,12.4,27.7,27.7v71
		C136.3,300.8,123.9,313.2,108.7,313.2z"/>
	<path d="M285.5,313.2h-71c-15.3,0-27.7-12.4-27.7-27.7v-71c0-15.3,12.4-27.7,27.7-27.7h71c15.3,0,27.7,12.4,27.7,27.7v71
		C313.2,300.8,300.8,313.2,285.5,313.2z"/>
	<path d="M462.3,313.2h-71c-15.3,0-27.7-12.4-27.7-27.7v-71c0-15.3,12.4-27.7,27.7-27.7h71c15.3,0,27.7,12.4,27.7,27.7v71
		C490,300.8,477.6,313.2,462.3,313.2z"/>
	<path d="M108.7,490h-71C22.4,490,10,477.6,10,462.3v-71c0-15.3,12.4-27.7,27.7-27.7h71c15.3,0,27.7,12.4,27.7,27.7v71
		C136.3,477.6,123.9,490,108.7,490z"/>
	<path d="M285.5,490h-71c-15.3,0-27.7-12.4-27.7-27.7v-71c0-15.3,12.4-27.7,27.7-27.7h71c15.3,0,27.7,12.4,27.7,27.7v71
		C313.2,477.6,300.8,490,285.5,490z"/>
	<path d="M462.3,490h-71c-15.3,0-27.7-12.4-27.7-27.7v-71c0-15.3,12.4-27.7,27.7-27.7h71c15.3,0,27.7,12.4,27.7,27.7v71
		C490,477.6,477.6,490,462.3,490z"/>
</g>
</svg>
