<?xml version="1.0" encoding="utf-8"?>
<!-- Generator: Adobe Illustrator 21.1.0, SVG Export Plug-In . SVG Version: 6.00 Build 0)  -->
<svg version="1.1" id="Layer_1" xmlns="http://www.w3.org/2000/svg" xmlns:xlink="http://www.w3.org/1999/xlink" x="0px" y="0px"
	 viewBox="0 0 500 500" style="enable-background:new 0 0 500 500;" xml:space="preserve">
<g id="FAQ">
	<path d="M227.5,255.7c0-11.3-7.8-19.6-18.6-19.6c-10.9,0-18.9,8.2-18.9,19.6c0,11,8,19.3,18.6,19.3
		C219.5,275.1,227.5,266.9,227.5,255.7z"/>
	<path d="M226.2,142.5c0,9.5-5.7,18-15.6,29.7c-12.1,14.5-17.4,29.5-15.8,44.5l0,0.5c0.4,5.5,5,9.8,10.6,9.8h6.7c6,0,10.8-5,10.6-11
		v0c-0.7-11.3,3-20.5,12.5-31.8c12.2-14.5,21.5-27,21.5-44.4c0-19.7-13.7-39.6-44.3-39.6c-13.6,0-28,4.1-36.7,10.4v0
		c-1.7,1.2-2.3,3.4-1.6,5.3l5.7,15c1.1,2.9,4.6,3.9,7,2l0,0c5.1-3.9,13.6-6.4,21.2-6.4C216.3,126.7,226.2,129.6,226.2,142.5z"/>
	<path d="M451.7,404.6c24.8-23.3,38.3-53,38.3-84.1c0-34.6-16.5-67-46.5-91.2c-7.2-5.8-15-11-23.2-15.5c2.9-9.8,4.4-19.9,4.4-30.1
		c0-39.6-22-76.7-62-104.3c-39-26.9-90.6-41.7-145.4-41.7S111,52.5,72,79.3C32,106.9,10,144,10,183.6c0,36.5,18.9,71.1,53.3,97.9
		l0,55.3c0,5.9,3.3,11.1,8.6,13.7c2.1,1,4.3,1.5,6.6,1.5c3.4,0,6.7-1.1,9.5-3.4l40.8-32.9c15.7,5.2,32.1,9,49.1,11.3
		c1.9,32.1,18.2,62,46.3,84.7c29.4,23.8,68.4,36.9,109.7,36.9c25.3,0,50.2-5,72.5-14.6l33.4,25.8c2.2,1.7,4.8,2.5,7.4,2.5
		c2.2,0,4.3-0.6,6.3-1.8c4.3-2.6,6.6-7.5,5.7-12.5L451.7,404.6z M130,296.8l-4.8-1.7l-43.6,35.2l0-57.9l-3.7-2.7
		c-32-23.6-49.6-54.2-49.6-86C28.3,113.2,113.1,56,217.4,56s189.1,57.3,189.1,127.7s-84.8,127.7-189.1,127.7
		C187,311.3,156.8,306.3,130,296.8z M435.8,394.3l-3.9,3.4l6.5,38l-29.7-23l-5.1,2.4c-21.1,9.9-45.2,15.1-69.8,15.1
		c-72.5,0-132.1-44.7-137.5-101.4c7,0.5,14,0.7,21.1,0.7c54.8,0,106.4-14.8,145.4-41.7c23.4-16.2,40.7-35.6,51-56.9
		c35.1,19.9,58,52.6,58,89.4C471.7,347.8,458.9,374,435.8,394.3z"/>
</g>
</svg>
