<?xml version="1.0" encoding="utf-8"?>
<!-- Generator: Adobe Illustrator 21.1.0, SVG Export Plug-In . SVG Version: 6.00 Build 0)  -->
<svg version="1.1" id="Layer_1" xmlns="http://www.w3.org/2000/svg" xmlns:xlink="http://www.w3.org/1999/xlink" x="0px" y="0px"
	 viewBox="0 0 500 500" style="enable-background:new 0 0 500 500;" xml:space="preserve">
<g id="Filter">
	<path d="M33.4,112H86v15.6c0,12.9,10.5,23.4,23.4,23.4h77.9c12.9,0,23.4-10.5,23.4-23.4V112h256c12.9,0,23.4-10.5,23.4-23.4
		s-10.5-23.4-23.4-23.4h-256V49.7c0-12.9-10.5-23.4-23.4-23.4h-77.9C96.5,26.3,86,36.8,86,49.7v15.6H33.4C20.5,65.2,10,75.7,10,88.6
		S20.5,112,33.4,112z"/>
	<path d="M466.6,226.6h-53.3v-15.6c0-12.9-10.5-23.4-23.4-23.4h-77.9c-12.9,0-23.4,10.5-23.4,23.4v15.6H33.4
		C20.5,226.6,10,237.1,10,250c0,12.9,10.5,23.4,23.4,23.4h255.4v15.6c0,12.9,10.5,23.4,23.4,23.4h77.9c12.9,0,23.4-10.5,23.4-23.4
		v-15.6h53.3c12.9,0,23.4-10.5,23.4-23.4C490,237.1,479.5,226.6,466.6,226.6z"/>
	<path d="M466.6,388H243.2v-15.6c0-12.9-10.5-23.4-23.4-23.4H142c-12.9,0-23.4,10.5-23.4,23.4V388H33.4C20.5,388,10,398.5,10,411.4
		c0,12.9,10.5,23.4,23.4,23.4h85.3v15.6c0,12.9,10.5,23.4,23.4,23.4h77.9c12.9,0,23.4-10.5,23.4-23.4v-15.6h223.4
		c12.9,0,23.4-10.5,23.4-23.4C490,398.5,479.5,388,466.6,388z"/>
</g>
</svg>
