<?xml version="1.0" encoding="utf-8"?>
<!-- Generator: Adobe Illustrator 21.1.0, SVG Export Plug-In . SVG Version: 6.00 Build 0)  -->
<svg version="1.1" id="Layer_1" xmlns="http://www.w3.org/2000/svg" xmlns:xlink="http://www.w3.org/1999/xlink" x="0px" y="0px"
	 viewBox="0 0 500 500" style="enable-background:new 0 0 500 500;" xml:space="preserve">
<g id="Home">
	<g>
		<path d="M436.2,464.5H286.8v-156c0-13-10.5-23.5-23.5-23.5h-26.5c-13,0-23.5,10.5-23.5,23.5v156H63.8V252.9
			c0-6.8,5.5-12.3,12.3-12.3h8.4c6.8,0,12.3,5.5,12.3,12.3v178.6h83.4v-123c0-31.2,25.3-56.6,56.6-56.6h26.5
			c31.2,0,56.6,25.3,56.6,56.6v123h83.4V252.9c0-6.8,5.5-12.3,12.3-12.3h8.4c6.8,0,12.3,5.5,12.3,12.3V464.5z"/>
	</g>
	<g>
		<path d="M473.5,249.2c-3.6,0-7.2-1.2-10.2-3.5L250,77.6l-213.3,168c-7.2,5.6-17.6,4.4-23.2-2.7c-5.6-7.2-4.4-17.5,2.7-23.2
			L238.7,44.4c6.6-5.2,15.9-5.2,22.5,0l222.4,175.3c7.2,5.6,8.4,16,2.7,23.2C483.2,247,478.4,249.2,473.5,249.2z"/>
	</g>
</g>
</svg>
