<?xml version="1.0" encoding="utf-8"?>
<!-- Generator: Adobe Illustrator 21.1.0, SVG Export Plug-In . SVG Version: 6.00 Build 0)  -->
<svg version="1.1" id="Layer_1" xmlns="http://www.w3.org/2000/svg" xmlns:xlink="http://www.w3.org/1999/xlink" x="0px" y="0px"
	 viewBox="0 0 500 500" style="enable-background:new 0 0 500 500;" xml:space="preserve">
<g id="Login">
	<path d="M448.1,15.6c-8.4-5.8-19-7.1-28.6-3.8L150.9,80.5l-0.9,0.2l-0.8,0.3c-12.2,4.7-20.4,16.7-20.4,29.8v76.6h30v-76.6
		c0-0.6,0.3-1.2,0.8-1.6l268-68.5l0.9-0.2l0.8-0.3c0.2-0.1,0.9-0.4,1.8,0.2c0.8,0.6,0.8,1.3,0.8,1.6v416.2c0,0.6-0.2,1-0.6,1.4
		c-0.4,0.4-0.9,0.5-1.5,0.5l-0.3,0l-269.2-22.6c-0.9-0.2-1.5-1-1.5-1.9v-25.1h-30v25.1c0,16,12,29.6,27.9,31.6l0.3,0l269.4,22.6
		c1.2,0.1,2.4,0.2,3.6,0.2c7.7,0,15.2-2.8,21.1-8c6.9-6.1,10.8-14.8,10.8-23.9V41.9C461.9,31.4,456.8,21.5,448.1,15.6z"/>
	<path d="M186.2,403.5c0,5.4,6.4,8.2,10.4,4.5l119.1-112l-119.1-112c-3.9-3.7-10.4-0.9-10.4,4.5v44L50.6,268.7
		c-7.4,2-12.5,8.6-12.5,16.3v46.2c0,8.7,6.7,16,15.4,16.8l132.8,11.6V403.5z"/>
</g>
</svg>
