<?xml version="1.0" encoding="utf-8"?>
<!-- Generator: Adobe Illustrator 21.1.0, SVG Export Plug-In . SVG Version: 6.00 Build 0)  -->
<svg version="1.1" id="Layer_1" xmlns="http://www.w3.org/2000/svg" xmlns:xlink="http://www.w3.org/1999/xlink" x="0px" y="0px"
	 viewBox="0 0 500 500" style="enable-background:new 0 0 500 500;" xml:space="preserve">
<path d="M359.5,230.8l-163.4-90.5c-2.7-1.6-5.9-2.5-9.1-2.5c-3,0-5.9,0.8-8.7,2.3c-5.5,3.1-8.9,9-8.9,15.3v189.3
	c0,6.3,3.4,12.2,8.9,15.4c2.6,1.5,5.6,2.3,8.7,2.3c3.2,0,6.3-0.9,9.1-2.5l163.2-90.6c6.8-4.1,10.9-11.2,10.9-19.2
	C370.4,242,366.3,234.8,359.5,230.8z M343.3,250l-148.8,81.7V168.3L343.3,250z"/>
<g id="check_mark">
	<path d="M250,10C117.5,10,10,117.5,10,250s107.5,240,240,240s240-107.5,240-240S382.5,10,250,10z M404.1,404.1
		c-20,20-43.3,35.7-69.3,46.7C308,462.2,279.4,468,250,468s-58-5.8-84.8-17.1c-26-11-49.3-26.7-69.3-46.7
		c-20-20-35.7-43.3-46.7-69.3C37.8,308,32,279.4,32,250s5.8-58,17.1-84.8c11-26,26.7-49.3,46.7-69.3c20-20,43.3-35.7,69.3-46.7
		C192,37.8,220.6,32,250,32s58,5.8,84.8,17.1c26,11,49.3,26.7,69.3,46.7c20,20,35.7,43.3,46.7,69.3C462.2,192,468,220.6,468,250
		s-5.8,58-17.1,84.8C439.9,360.8,424.2,384.1,404.1,404.1z"/>
</g>
</svg>
