<?xml version="1.0" encoding="utf-8"?>
<!-- Generator: Adobe Illustrator 21.1.0, SVG Export Plug-In . SVG Version: 6.00 Build 0)  -->
<svg version="1.1" id="Layer_1" xmlns="http://www.w3.org/2000/svg" xmlns:xlink="http://www.w3.org/1999/xlink" x="0px" y="0px"
	 viewBox="0 0 500 500" style="enable-background:new 0 0 500 500;" xml:space="preserve">
<g id="Playlist">
	<path d="M456,173.6h-56.3v-78c0-18.6-15.2-33.8-33.8-33.8H43.8C25.2,61.8,10,77,10,95.6v185.8c0,18.6,15.2,33.8,33.8,33.8h54.6v89
		c0,18.7,15.3,34,34,34H456c18.7,0,34-15.2,34-34V207.6C490,188.8,474.8,173.6,456,173.6z M151.7,173.6h-19.3H28.7v-39.9h352.4v39.9
		H151.7z M43.8,80.5H366c8.3,0,15.1,6.8,15.1,15.1V115H28.7V95.6C28.7,87.3,35.4,80.5,43.8,80.5z M43.8,296.6
		c-8.3,0-15.1-6.8-15.1-15.1v-89.2h73.5c-2.4,4.6-3.8,9.8-3.8,15.3v89H43.8z M471.3,404.2c0,8.5-6.9,15.3-15.3,15.3H132.4
		c-8.5,0-15.3-6.9-15.3-15.3V207.6c0-8.5,6.9-15.3,15.3-15.3h19.3H456c8.5,0,15.3,6.9,15.3,15.3V404.2z"/>
	<path d="M349.4,285.7l-83.3-44.4c-7.2-3.8-15.6-3.6-22.6,0.6c-7,4.2-11.2,11.6-11.2,19.7v89.9c0,8.2,4.2,15.6,11.3,19.8
		c3.6,2.2,7.7,3.2,11.7,3.2c3.8,0,7.6-0.9,11-2.8l83.3-45.6c7.4-4,12-11.8,12-20.3C361.6,297.4,356.9,289.7,349.4,285.7z
		 M340.7,309.8l-83.3,45.6c-1.9,1-3.5,0.4-4.3-0.1c-0.8-0.5-2.1-1.6-2.1-3.7v-89.9c0-2.1,1.3-3.3,2.1-3.7c0.5-0.3,1.3-0.6,2.2-0.6
		c0.6,0,1.3,0.1,2,0.5l83.3,44.4c2.1,1.1,2.3,3,2.3,3.8C343,307,342.7,308.8,340.7,309.8z"/>
</g>
</svg>
