<?xml version="1.0" encoding="utf-8"?>
<!-- Generator: Adobe Illustrator 21.1.0, SVG Export Plug-In . SVG Version: 6.00 Build 0)  -->
<svg version="1.1" id="Layer_1" xmlns="http://www.w3.org/2000/svg" xmlns:xlink="http://www.w3.org/1999/xlink" x="0px" y="0px"
	 viewBox="0 0 500 500" style="enable-background:new 0 0 500 500;" xml:space="preserve">
<g id="Premium">
	<path d="M487.5,191.9c-6.7-20.7-25.1-34-46.9-34H330.8L296.9,53.4c-6.7-20.7-25.1-34-46.9-34c-21.7,0-40.1,13.4-46.9,34
		l-33.9,104.5H59.4c-21.7,0-40.1,13.4-46.9,34c-6.7,20.7,0.3,42.3,17.9,55.1l88.9,64.6L85.3,416c-6.7,20.7,0.3,42.3,17.9,55.1
		c8.8,6.4,18.9,9.6,29,9.6c10.1,0,20.2-3.2,29-9.6l85-61.8c2.3-1.7,5.4-1.7,7.6,0l85,61.8c17.6,12.8,40.3,12.8,57.9,0
		c17.6-12.8,24.6-34.4,17.9-55.1l-33.9-104.5l88.9-64.6C487.2,234.2,494.2,212.6,487.5,191.9z M444.5,212.4l-114,82.8l43.5,134
		c1.2,3.7-0.6,6-2.4,7.3c-1.7,1.3-4.5,2.3-7.7,0l-85-61.8c-17.3-12.6-40.6-12.6-57.9,0l-85,61.8c-3.2,2.3-5.9,1.3-7.6,0
		c-1.7-1.3-3.6-3.6-2.4-7.3l43.5-134l-114-82.8c-3.2-2.3-3-5.2-2.4-7.3c0.7-2.1,2.3-4.5,6.2-4.5h140.9l43.5-134
		c1.2-3.7,4-4.5,6.2-4.5c2.2,0,5,0.8,6.2,4.5l43.5,134h140.9c3.9,0,5.5,2.4,6.2,4.5C447.5,207.2,447.6,210.1,444.5,212.4z"/>
</g>
</svg>
