<?xml version="1.0" encoding="utf-8"?>
<!-- Generator: Adobe Illustrator 21.1.0, SVG Export Plug-In . SVG Version: 6.00 Build 0)  -->
<svg version="1.1" id="Layer_1" xmlns="http://www.w3.org/2000/svg" xmlns:xlink="http://www.w3.org/1999/xlink" x="0px" y="0px"
	 viewBox="0 0 500 500" style="enable-background:new 0 0 500 500;" xml:space="preserve">
<g id="searh">
	<path d="M314.9,126.3C289.1,89.9,247,68.2,202.5,68.2c-9.3,0-16.8,7.5-16.8,16.8s7.5,16.8,16.8,16.8c33.7,0,65.4,16.4,84.9,43.9
		c3.3,4.6,8.5,7.1,13.7,7.1c3.4,0,6.8-1,9.7-3.1C318.4,144.4,320.2,133.9,314.9,126.3z"/>
	<path d="M485.1,458L352.9,325.8c26.3-32.9,42.1-74.6,42.1-120c0-106.1-86.4-192.5-192.5-192.5S10,99.7,10,205.8
		s86.4,192.5,192.5,192.5c48.7,0,93.3-18.2,127.2-48.2l131.6,131.6c3.3,3.3,7.6,4.9,11.9,4.9s8.6-1.6,11.9-4.9
		C491.6,475.2,491.6,464.5,485.1,458z M43.6,205.8c0-87.6,71.3-158.9,158.9-158.9s158.9,71.3,158.9,158.9s-71.3,158.9-158.9,158.9
		S43.6,293.4,43.6,205.8z"/>
</g>
</svg>
