<?xml version="1.0" encoding="utf-8"?>
<!-- Generator: Adobe Illustrator 21.1.0, SVG Export Plug-In . SVG Version: 6.00 Build 0)  -->
<svg version="1.1" id="Layer_1" xmlns="http://www.w3.org/2000/svg" xmlns:xlink="http://www.w3.org/1999/xlink" x="0px" y="0px"
	 viewBox="0 0 500 500" style="enable-background:new 0 0 500 500;" xml:space="preserve">
<g id="settings">
	<path d="M473,208.3c-11.6-5.8-24.8-9.6-39.3-12.1c-3.9-13.3-9.2-26.1-15.8-38c8.4-12,15.1-24.1,19.2-36.3c3.7-11,0.9-23.2-7.4-31.5
		l-20.1-20.1c-5.8-5.8-13.7-9-21.7-9c-3.3,0-6.6,0.5-9.8,1.6c-12.3,4.1-24.4,10.8-36.3,19.2c-12-6.6-24.7-11.9-38-15.8
		c-2.5-14.4-6.3-27.7-12.1-39.3c-5.2-10.4-15.8-17-27.5-17h-28.5c-11.6,0-22.3,6.6-27.5,17c-5.8,11.6-9.6,24.8-12.1,39.3
		c-13.3,3.9-26.1,9.2-38,15.8c-12-8.4-24.1-15.1-36.3-19.2c-3.2-1.1-6.5-1.6-9.8-1.6c-8,0-15.8,3.1-21.7,9L70.2,90.4
		c-8.2,8.2-11.1,20.4-7.4,31.5c4.1,12.3,10.8,24.4,19.2,36.3c-6.6,12-11.9,24.7-15.8,38c-14.4,2.5-27.7,6.3-39.3,12.1
		c-10.4,5.2-17,15.8-17,27.5v28.5c0,11.6,6.6,22.3,17,27.5c11.6,5.8,24.8,9.6,39.3,12.1c3.9,13.3,9.2,26.1,15.8,38
		c-8.4,12-15.1,24.1-19.2,36.3c-3.7,11-0.9,23.2,7.4,31.5l20.1,20.1c5.8,5.8,13.7,9,21.7,9c3.3,0,6.6-0.5,9.8-1.6
		c12.3-4.1,24.4-10.8,36.3-19.2c12,6.6,24.7,11.9,38,15.8c2.5,14.4,6.3,27.7,12.1,39.3c5.2,10.4,15.8,17,27.5,17h28.5
		c11.6,0,22.3-6.6,27.5-17c5.8-11.6,9.6-24.8,12.1-39.3c13.3-3.9,26.1-9.2,38-15.8c12,8.4,24.1,15.1,36.3,19.2
		c3.2,1.1,6.5,1.6,9.8,1.6c8,0,15.8-3.1,21.7-9l20.1-20.1c8.2-8.2,11.1-20.4,7.4-31.5c-4.1-12.3-10.8-24.4-19.2-36.3
		c6.6-12,11.9-24.7,15.8-38c14.4-2.5,27.7-6.3,39.3-12.1c10.4-5.2,17-15.8,17-27.5v-28.5C490,224.1,483.4,213.5,473,208.3z
		 M467.3,264.2c0,3-1.7,5.8-4.5,7.1c-8.9,4.5-19.7,7.8-33,10.1l-13.9,2.4l-4,13.6c-3.4,11.6-8.1,22.9-13.9,33.5l-6.8,12.4l8.1,11.6
		c7.8,11,13.1,21,16.2,30.5c1,2.9,0.3,6.1-1.9,8.2l-20.1,20.1c-1.5,1.5-3.5,2.3-5.6,2.3c-0.9,0-1.7-0.1-2.6-0.4
		c-9.5-3.2-19.5-8.5-30.5-16.2l-11.6-8.1l-12.4,6.8c-10.6,5.8-21.9,10.5-33.5,13.9l-13.6,4l-2.4,13.9c-2.3,13.3-5.6,24.1-10.1,33
		c-1.4,2.8-4.1,4.5-7.1,4.5h-28.5c-3,0-5.8-1.7-7.1-4.5c-4.5-8.9-7.8-19.7-10.1-33l-2.4-13.9l-13.6-4c-11.6-3.4-22.9-8.1-33.5-13.9
		l-12.4-6.8l-11.6,8.1c-11,7.8-21,13.1-30.5,16.2c-0.8,0.3-1.7,0.4-2.6,0.4c-2.1,0-4.1-0.8-5.6-2.3l-20.1-20.1
		c-2.1-2.1-2.9-5.3-1.9-8.2c3.2-9.5,8.5-19.5,16.2-30.5l8.1-11.6l-6.8-12.4c-5.8-10.6-10.5-21.9-13.9-33.5l-4-13.6l-13.9-2.4
		c-13.3-2.3-24.1-5.6-33-10.1c-2.8-1.4-4.5-4.1-4.5-7.1v-28.5c0-3,1.7-5.8,4.5-7.1c8.9-4.5,19.7-7.8,33-10.1l13.9-2.4l4-13.6
		c3.4-11.6,8.1-22.9,13.9-33.5l6.8-12.4l-8.1-11.6c-7.8-11-13.1-21-16.2-30.5c-1-2.9-0.3-6.1,1.9-8.2l20.1-20.1
		c1.5-1.5,3.5-2.3,5.6-2.3c0.9,0,1.7,0.1,2.6,0.4c9.5,3.2,19.5,8.5,30.5,16.2l11.6,8.1l12.4-6.8c10.6-5.8,21.9-10.5,33.5-13.9
		l13.6-4l2.4-13.9c2.3-13.3,5.6-24.1,10.1-33c1.4-2.8,4.1-4.5,7.1-4.5h28.5c3,0,5.8,1.7,7.1,4.5c4.5,8.9,7.8,19.7,10.1,33l2.4,13.9
		l13.6,4c11.6,3.4,22.9,8.1,33.5,13.9l12.4,6.8l11.6-8.1c11-7.7,21-13.1,30.5-16.2c0.8-0.3,1.7-0.4,2.6-0.4c2.1,0,4.1,0.8,5.6,2.3
		l20.1,20.1c2.1,2.1,2.9,5.3,1.9,8.2c-3.2,9.5-8.5,19.5-16.2,30.5l-8.1,11.6l6.8,12.4c5.8,10.6,10.5,21.9,13.9,33.5l4,13.6l13.9,2.4
		c13.3,2.3,24.1,5.6,33,10.1c2.8,1.4,4.5,4.1,4.5,7.1V264.2z"/>
	<path d="M250,177.8c-39.9,0-72.2,32.3-72.2,72.2s32.3,72.2,72.2,72.2s72.2-32.3,72.2-72.2S289.9,177.8,250,177.8z M250,299.5
		c-27.3,0-49.5-22.2-49.5-49.5s22.2-49.5,49.5-49.5s49.5,22.2,49.5,49.5S277.3,299.5,250,299.5z"/>
</g>
</svg>
