<?xml version="1.0" encoding="utf-8"?>
<!-- Generator: Adobe Illustrator 21.1.0, SVG Export Plug-In . SVG Version: 6.00 Build 0)  -->
<svg version="1.1" id="Layer_1" xmlns="http://www.w3.org/2000/svg" xmlns:xlink="http://www.w3.org/1999/xlink" x="0px" y="0px"
	 viewBox="0 0 500 500" style="enable-background:new 0 0 500 500;" xml:space="preserve">
<g id="Skin">
	<path d="M163.4,171.4c19.6,0,35.5-19.3,35.5-43c0-23.7-15.9-43-35.5-43s-35.5,19.3-35.5,43C128,152.1,143.9,171.4,163.4,171.4z
		 M163.4,105.9c8.2,0,15.1,10.3,15.1,22.6s-6.9,22.6-15.1,22.6c-8.2,0-15.1-10.3-15.1-22.6S155.3,105.9,163.4,105.9z"/>
	<path d="M107.3,236c22.7,0,41.1-18.4,41.1-41.1s-18.4-41.1-41.1-41.1s-41.1,18.4-41.1,41.1S84.6,236,107.3,236z M107.3,174.2
		c11.4,0,20.7,9.3,20.7,20.7c0,11.4-9.3,20.7-20.7,20.7s-20.7-9.3-20.7-20.7C86.6,183.5,95.9,174.2,107.3,174.2z"/>
	<path d="M132.2,276.4c0-21-17.1-38-38-38c-21,0-38,17.1-38,38s17.1,38,38,38C115.1,314.4,132.2,297.3,132.2,276.4z M94.2,294
		c-9.7,0-17.6-7.9-17.6-17.6s7.9-17.6,17.6-17.6s17.6,7.9,17.6,17.6S103.9,294,94.2,294z"/>
	<path d="M157.8,297c-22.7,0-41.1,18.4-41.1,41.1c0,22.7,18.4,41.1,41.1,41.1s41.1-18.4,41.1-41.1C198.9,315.5,180.5,297,157.8,297z
		 M157.8,358.8c-11.4,0-20.7-9.3-20.7-20.7c0-11.4,9.3-20.7,20.7-20.7c11.4,0,20.7,9.3,20.7,20.7
		C178.5,349.5,169.2,358.8,157.8,358.8z"/>
	<path d="M489.9,185.1c-0.8-11-5.8-21.1-14-28.4c-7.7-6.9-17.6-10.6-28-10.6c-9.9,0-19.6,3.5-27.2,9.9l-48.6,41.1
		c-1.9-3-4.1-5.8-6.7-8.4c-8.8-8.8-20.6-13.7-33-13.7c-12.5,0-24.2,4.9-33,13.7l-28.1,28.1c-12,12-31.6,12-43.6,0
		c-6.6-6.6-9.9-15.8-8.9-25.1c1-9.3,6.1-17.6,14-22.6l43.2-27.7c23.7-15.2,32.5-45.9,20.5-71.4c-9.3-19.6-29.2-32.2-50.9-32.2h-86
		C77.2,37.7,10,104.9,10,187.4v76.8c0,82.5,67.2,149.7,149.7,149.7c7,0,13.8-0.7,20.5-2v30v20.4h20.4h27.5
		c16.4,0,32.2-5.9,44.5-16.6s20.4-25.5,22.8-41.7l0.1-0.7l25.5-17.9c2,0.4,4,0.6,6,0.6c7.1,0,14.2-2.4,19.8-6.7l2.1-1.6
		c6.7-5.2,11-12.7,12.3-20.8l118.9-141.4C487.2,206.8,490.7,196.1,489.9,185.1z M200.2,355.4c-9.8,9.7-16.2,21.9-18.7,35.2
		c-7,1.9-14.3,2.8-21.8,2.8c-71.3,0-129.3-58-129.3-129.3v-76.8c0-71.3,58-129.3,129.3-129.3h86c13.8,0,26.5,8.1,32.4,20.5
		c7.7,16.2,2.1,35.8-13,45.5l-43.2,27.7c-13.1,8.4-21.6,22.1-23.3,37.6c-1.7,15.5,3.7,30.7,14.7,41.7c20,20,52.5,20,72.5,0
		l28.1-28.1c10.3-10.3,26.9-10.3,37.2,0c2.2,2.2,3.9,4.7,5.2,7.4l-73.5,62.2c-2-0.4-4.1-0.6-6.1-0.6c-7.6,0-15,2.7-20.8,7.5
		l-2.1,1.8c-7.3,6.1-11.5,15-11.7,24.4c-0.1,5.4,1.2,10.7,3.6,15.4l-9.8,15.4C222.4,339.1,210,345.6,200.2,355.4z M464.5,202.1
		L340.9,349.1c1,4.4-0.5,9.2-4.4,12.2l-2.1,1.6c-2.2,1.7-4.8,2.5-7.4,2.5c-2.9,0-5.8-1-8-3.1l-0.4-0.3l-41.8,29.4l-0.2-0.2l-1.4,9.9
		c-3.3,23.4-23.4,40.8-47.1,40.8h-27.5v-38.4c0-26.5,21.5-47.3,47-47.6l23.3-36.5l-4.5-4c-5.5-4.9-5.4-13.6,0.3-18.3l2.1-1.8
		c2.2-1.9,5-2.8,7.7-2.8c2.9,0,5.7,1,8,3.1l1.3,1.2l148-125.1c4-3.4,9-5.1,14-5.1c5.2,0,10.3,1.8,14.4,5.5l0,0
		C471.1,179.8,472.1,193.1,464.5,202.1z"/>
</g>
</svg>
