<?xml version="1.0" encoding="utf-8"?>
<!-- Generator: Adobe Illustrator 21.1.0, SVG Export Plug-In . SVG Version: 6.00 Build 0)  -->
<svg version="1.1" id="Layer_1" xmlns="http://www.w3.org/2000/svg" xmlns:xlink="http://www.w3.org/1999/xlink" x="0px" y="0px"
	 viewBox="0 0 500 500" style="enable-background:new 0 0 500 500;" xml:space="preserve">
<g id="trash">
	<path d="M459.3,100.9H40.7c-5.9,0-10.7,4.8-10.7,10.7s4.8,10.7,10.7,10.7h40.8l42.6,329.6c2.8,21.7,21.4,38.1,43.3,38.1h165.2
		c21.9,0,40.5-16.4,43.3-38.1l42.6-329.6h40.8c5.9,0,10.7-4.8,10.7-10.7S465.2,100.9,459.3,100.9z M354.6,449.2
		c-1.4,11-10.9,19.4-22,19.4H167.4c-11.1,0-20.6-8.3-22-19.4l-42.2-326.8h293.7L354.6,449.2z"/>
	<path d="M162.7,43.3c0-6.5,5.3-11.8,11.8-11.8h151c6.5,0,11.8,5.3,11.8,11.8v47.4h21.5V43.3c0-18.3-14.9-33.3-33.3-33.3h-151
		c-18.3,0-33.3,14.9-33.3,33.3v47.4h21.5V43.3z"/>
	<path d="M250,377.4c5.9,0,10.7-4.8,10.7-10.7V213.4c0-5.9-4.8-10.7-10.7-10.7c-5.9,0-10.7,4.8-10.7,10.7v153.3
		C239.3,372.6,244.1,377.4,250,377.4z"/>
	<path d="M169.8,373.7c0.7,5.4,5.3,9.4,10.6,9.4c0.4,0,0.9,0,1.3-0.1c5.9-0.7,10.1-6.1,9.3-12l-19-153.3c-0.7-5.9-6.1-10.1-12-9.3
		c-5.9,0.7-10.1,6.1-9.3,12L169.8,373.7z"/>
	<path d="M318.2,383c0.4,0.1,0.9,0.1,1.3,0.1c5.3,0,10-4,10.6-9.4l19-153.3c0.7-5.9-3.4-11.2-9.3-12c-5.9-0.7-11.2,3.4-12,9.3
		l-19,153.3C308.2,376.9,312.3,382.3,318.2,383z"/>
</g>
</svg>
